<?xml version="1.0" encoding="UTF-8" standalone="no"?>
<svg
   xmlns:dc="http://purl.org/dc/elements/1.1/"
   xmlns:cc="http://creativecommons.org/ns#"
   xmlns:rdf="http://www.w3.org/1999/02/22-rdf-syntax-ns#"
   xmlns:svg="http://www.w3.org/2000/svg"
   xmlns="http://www.w3.org/2000/svg"
   xmlns:sodipodi="http://sodipodi.sourceforge.net/DTD/sodipodi-0.dtd"
   xmlns:inkscape="http://www.inkscape.org/namespaces/inkscape"
   width="128"
   height="128"
   viewBox="0 0 1 1"
   version="1.1"
   id="svg2"
   inkscape:version="0.91 r13725"
   sodipodi:docname="eye_neg.svg">
  <metadata
     id="metadata14">
    <rdf:RDF>
      <cc:Work
         rdf:about="">
        <dc:format>image/svg+xml</dc:format>
        <dc:type
           rdf:resource="http://purl.org/dc/dcmitype/StillImage" />
        <dc:title></dc:title>
      </cc:Work>
    </rdf:RDF>
  </metadata>
  <defs
     id="defs12" />
  <sodipodi:namedview
     pagecolor="#ffffff"
     bordercolor="#666666"
     borderopacity="1"
     objecttolerance="10"
     gridtolerance="10"
     guidetolerance="10"
     inkscape:pageopacity="0"
     inkscape:pageshadow="2"
     inkscape:window-width="1280"
     inkscape:window-height="737"
     id="namedview10"
     showgrid="false"
     inkscape:zoom="1.28"
     inkscape:cx="8261.5027"
     inkscape:cy="-8135.0439"
     inkscape:window-x="-8"
     inkscape:window-y="-8"
     inkscape:window-maximized="1"
     inkscape:current-layer="svg2" />
  <path
     style="fill:#000000;stroke-width:0"
     d="m 63.5,63.5 0,0.550003 a 0.525,0.525 0 0 1 1,0 l 0,-0.550003 -1,0 z m 1,0.550003 -0.199997,0 a 0.325,0.325 0 0 0 -0.600006,0 l -0.199997,0 0,0.449997 1,0 0,-0.449997 z M 64,63.949997 A 0.2,0.2 0 0 1 64.199997,64.149994 0.2,0.2 0 0 1 64,64.350006 0.2,0.2 0 0 1 63.800003,64.149994 0.2,0.2 0 0 1 64,63.949997 Z"
     id="circle4"
     inkscape:connector-curvature="0" />
</svg>
